<svg xmlns="http://www.w3.org/2000/svg" viewBox="0 0 640 420" fill="none">
  <rect width="640" height="420" rx="32" fill="#F0FDFA"/>
  <rect x="96" y="112" width="450" height="218" rx="26" fill="#FFFFFF" stroke="#CFFAFE" stroke-width="8"/>
  <rect x="132" y="154" width="186" height="20" rx="10" fill="#E2E8F0"/>
  <rect x="132" y="194" width="240" height="20" rx="10" fill="#E2E8F0"/>
  <rect x="132" y="234" width="160" height="20" rx="10" fill="#E2E8F0"/>
  <circle cx="443" cy="226" r="70" fill="#A7F3D0"/>
  <circle cx="445" cy="225" r="47" fill="#ECFDF5"/>
  <path d="M443 256C443 238 456 226 470 226C466 243 455 256 443 256Z" fill="#22C55E"/>
  <path d="M443 256C443 238 430 226 416 226C420 243 431 256 443 256Z" fill="#16A34A"/>
  <rect x="439" y="256" width="8" height="28" rx="4" fill="#15803D"/>
  <circle cx="266" cy="95" r="28" fill="#7DD3FC" opacity=".68"/>
  <circle cx="536" cy="82" r="20" fill="#FDE68A" opacity=".8"/>
  <path d="M111 340C226 306 377 304 522 336" stroke="#0EA5E9" stroke-width="12" stroke-linecap="round" opacity=".55"/>
  <circle cx="206" cy="304" r="22" fill="#0F172A"/>
  <rect x="182" y="324" width="48" height="72" rx="19" fill="#0F172A"/>
  <rect x="161" y="338" width="22" height="54" rx="11" fill="#0F172A"/>
  <rect x="229" y="338" width="22" height="54" rx="11" fill="#0F172A"/>
  <path d="M213 338L253 307" stroke="#0F172A" stroke-width="12" stroke-linecap="round"/>
  <rect x="246" y="276" width="48" height="48" rx="12" fill="#22C55E"/>
  <path d="M261 300L271 310L283 292" stroke="#F8FAFC" stroke-width="6" stroke-linecap="round" stroke-linejoin="round"/>
</svg>
