<svg xmlns="http://www.w3.org/2000/svg" viewBox="0 0 520 320" fill="none">
  <rect width="520" height="320" rx="26" fill="#EFF6FF"/>
  <rect x="62" y="64" width="140" height="206" rx="22" fill="#FFFFFF" stroke="#DBEAFE" stroke-width="6"/>
  <rect x="88" y="102" width="88" height="12" rx="6" fill="#93C5FD"/>
  <rect x="88" y="130" width="72" height="12" rx="6" fill="#BFDBFE"/>
  <rect x="88" y="158" width="96" height="12" rx="6" fill="#BFDBFE"/>
  <rect x="88" y="186" width="60" height="12" rx="6" fill="#BFDBFE"/>
  <rect x="268" y="200" width="70" height="72" rx="14" fill="#A7F3D0"/>
  <rect x="344" y="160" width="70" height="112" rx="14" fill="#7DD3FC"/>
  <rect x="192" y="230" width="70" height="42" rx="14" fill="#FCD34D"/>
  <circle cx="298" cy="122" r="24" fill="#0F172A"/>
  <rect x="274" y="143" width="48" height="74" rx="18" fill="#0F172A"/>
  <rect x="253" y="157" width="22" height="56" rx="11" fill="#0F172A"/>
  <rect x="322" y="157" width="22" height="56" rx="11" fill="#0F172A"/>
  <path d="M318 170L348 148" stroke="#0F172A" stroke-width="8" stroke-linecap="round"/>
  <circle cx="348" cy="145" r="7" fill="#22C55E"/>
  <circle cx="102" cy="52" r="18" fill="#FDE68A"/>
  <circle cx="438" cy="56" r="16" fill="#C4B5FD"/>
</svg>
